#usda 1.0
(
    customLayerData = {
        string creator = "URDF USD Converter v0.1.0"
    }
    defaultPrim = "hunter_se_description"
    kilogramsPerUnit = 1
    metersPerUnit = 1
    upAxis = "Z"
)

def Xform "hunter_se_description" (
    prepend apiSchemas = ["GeomModelAPI"]
    assetInfo = {
        string name = "hunter_se_description"
    }
    kind = "component"
    prepend payload = @./Payload/Contents.usda@
)
{
    float3[] extentsHint = [(-0.3427407, -0.31648242, -0.29300034), (0.47710294, 0.3187674, 0.0015), (3.4028235e38, 3.4028235e38, 3.4028235e38), (-3.4028235e38, -3.4028235e38, -3.4028235e38), (3.4028235e38, 3.4028235e38, 3.4028235e38), (-3.4028235e38, -3.4028235e38, -3.4028235e38), (-0.3427407, -0.31648242, -0.29300034), (0.47710294, 0.3187674, 0.0015)]
}

def PhysicsScene "PhysicsScene" (
    prepend payload = @./Payload/Contents.usda@</PhysicsScene>
)
{
}

